<svg xmlns="http://www.w3.org/2000/svg" viewBox="0 0 48 48" width="48px" height="48px">
    <path fill="#4285F4" d="M46.5 24.5c0-1.6-.1-3.1-.4-4.5H24v9.1h12.8c-.6 3.1-2.2 5.7-4.5 7.4v6h7.3c4.3-4 6.9-9.8 6.9-17z"/>
    <path fill="#34A853" d="M24 48c6.3 0 11.6-2.1 15.5-5.7l-7.3-6c-2 1.4-4.6 2.2-8.2 2.2-6.3 0-11.7-4.3-13.6-10.2H3v6.1C7 42.1 14.8 48 24 48z"/>
    <path fill="#FBBC05" d="M10.4 28.5c-.5-1.4-.8-2.8-.8-4.5s.3-3.1.8-4.5V13h-7C2 16.6 0 20.2 0 24s2 7.4 3.4 11h7z"/>
    <path fill="#EA4335" d="M24 9c3.3 0 6.2 1.2 8.5 3.6l6.3-6.3C34.8 2.2 29.4 0 24 0 14.8 0 7 5.9 3 13.9l7.4 6C12.3 13.3 17.7 9 24 9z"/>
</svg>
